<svg xmlns="http://www.w3.org/2000/svg" viewBox="0 0 200 19.42"><title>자산 2</title><g id="레이어_2" data-name="레이어 2"><g id="레이어_1-2" data-name="레이어 1"><path d="M129.91,7.35a3.39,3.39,0,0,0-.5-1.79h1V4H127.3V2.94h-1.7V4h-3.1V5.56h1A3.4,3.4,0,0,0,123,7.35a3.47,3.47,0,0,0,6.93,0m-5.27,0A1.81,1.81,0,0,1,126,5.6a1.63,1.63,0,0,1,.45-.06,1.68,1.68,0,0,1,.45.06,1.81,1.81,0,1,1-2.26,1.75"/><polygon points="163.2 11.11 167.96 11.11 167.96 12.03 164.59 12.03 164.59 13.44 171.35 13.44 171.35 14.23 164.59 14.23 164.59 17.85 173.05 17.85 173.05 16.44 166.29 16.44 166.29 15.65 173.05 15.65 173.05 12.03 169.66 12.03 169.66 11.11 174.4 11.11 174.4 9.55 163.2 9.55 163.2 11.11"/><rect x="159.79" y="3.37" width="1.52" height="14.48"/><path d="M157.51,5.51h-1.79a3.72,3.72,0,1,0-.46,4.77h2.25v7.57H159V3.37h-1.53Zm-4.86,4.21a2.1,2.1,0,1,1,2.1-2.1,2.1,2.1,0,0,1-2.1,2.1m4.86-1h-1.3v0a3.89,3.89,0,0,0,.15-1.07l0-.54h1.18Z"/><path d="M167.67,3.37l-4.48,5.1h2.23l3.38-3.85,0,0s3.35,3.81,3.35,3.83h2.25L170,3.37Z"/><polygon points="145.17 6.95 137.3 6.95 137.3 11.59 146.91 11.59 146.91 10 139.04 10 139.04 8.55 146.91 8.55 146.91 3.9 137.29 3.9 137.29 5.5 145.17 5.5 145.17 6.95"/><polygon points="142.96 12.48 141.22 12.48 141.22 14.97 136.44 14.97 136.44 16.57 147.73 16.57 147.73 14.97 142.96 14.97 142.96 12.48"/><polygon points="198.54 6.34 198.54 3.37 196.8 3.37 196.8 10.66 198.54 10.66 198.54 7.94 200 7.94 200 6.34 198.54 6.34"/><path d="M195.05,11.47a3.5,3.5,0,1,0,3.49,3.5,3.5,3.5,0,0,0-3.49-3.5m0,5.31A1.81,1.81,0,1,1,196.86,15a1.81,1.81,0,0,1-1.81,1.81"/><polygon points="193.82 10.64 195.63 10.64 193.08 5.14 195.42 5.14 195.42 3.54 188.02 3.54 188.02 5.14 190.38 5.14 187.83 10.64 189.64 10.64 191.73 6.12 193.82 10.64"/><polygon points="108.81 12.87 114.79 12.87 114.79 11.27 110.55 11.27 110.55 5.6 114.79 5.6 114.79 4.01 108.81 4.01 108.81 12.87"/><polygon points="118.97 6.82 117.41 6.82 117.41 3.37 115.89 3.37 115.89 17.85 117.41 17.85 117.41 8.41 118.97 8.41 118.97 17.85 120.49 17.85 120.49 3.37 118.97 3.37 118.97 6.82"/><polygon points="133.53 3.37 131.79 3.37 131.79 11.24 133.53 11.24 133.53 8.43 134.99 8.43 134.99 6.83 133.53 6.83 133.53 3.37"/><polygon points="177.07 14.13 183.78 14.13 183.78 17.85 185.48 17.85 185.48 12.58 177.07 12.58 177.07 14.13"/><polygon points="125.12 14.08 131.83 14.08 131.83 17.85 133.53 17.85 133.53 12.52 125.12 12.52 125.12 14.08"/><polygon points="175.72 11.05 175.72 11.15 186.82 11.15 186.82 11.05 186.82 9.49 175.72 9.49 175.72 11.05"/><polygon points="183.93 8.41 185.63 8.41 185.63 3.54 177.13 3.54 177.13 5.1 183.93 5.1 183.93 8.41"/><rect x="77.35" y="14.52" width="10.94" height="1.61"/><polygon points="74.48 3.36 72.74 3.36 72.74 17.87 74.48 17.87 74.48 8.53 76.13 8.53 76.13 6.93 74.48 6.93 74.48 3.36"/><polygon points="85.92 7.22 77.99 7.22 77.99 11.91 87.67 11.91 87.67 10.3 79.75 10.3 79.75 8.84 87.67 8.84 87.67 4.15 77.99 4.15 77.99 5.76 85.92 5.76 85.92 7.22"/><polygon points="98.03 7.95 90.53 7.95 90.53 9.56 98.03 9.56 98.03 12.01 99.78 12.01 99.78 3.84 90.09 3.84 90.09 5.45 98.03 5.45 98.03 7.95"/><polygon points="95.25 12.06 93.5 12.06 93.5 14.52 89.45 14.52 89.45 16.13 100.4 16.13 100.4 14.52 95.25 14.52 95.25 12.06"/><path d="M67.26,4A4.06,4.06,0,1,0,71.32,8,4.06,4.06,0,0,0,67.26,4m0,6.5A2.44,2.44,0,1,1,69.7,8a2.44,2.44,0,0,1-2.44,2.44"/><path d="M104.32,11.07a1.09,1.09,0,1,0,0-2.17,1.09,1.09,0,0,0,0,2.17"/><path d="M29.32,1.18c-3.13.08-5.71,2.87-6.62,6.5,2.56.69,4.25,2.15,4.38,5.05.08,1.82-1.13,3.49-3.17,4.54,1.05,1.41,2.75,2.25,5.41,2.14,5.4-.22,7-3.08,7-8.11S34.47,1.17,29.51,1.17h-.19"/><path d="M9,12.82c-.1,2.81,4.22,5.63,9.65,5.63a11.54,11.54,0,0,0,5.28-1.17c-1.28-1.69-1.62-4.23-1.56-7a11.73,11.73,0,0,1,.35-2.61,19.57,19.57,0,0,0-4.76-.53h-.2c-6.1,0-8.67,3.18-8.76,5.67"/><path d="M36.45,3.45A3.2,3.2,0,0,0,40,6.91a3.27,3.27,0,0,0,3.52-3.46C43.49,1.28,42.54,0,40,0s-3.52,1.28-3.52,3.45"/><path d="M0,13.64c0,1.7.82,2.84,3.69,2.84s3.68-1.14,3.68-2.84-1.73-4.8-3.68-4.8S0,11.93,0,13.64"/><path d="M38.13,13.53c0,2,1.86,3.09,9,3.09,5,0,8.94-1.64,9-3.66v-.05C56.11,10.47,50,9,45.1,9s-7,2.52-7,4.55"/></g></g></svg>